# xmcd
#
# Track frame offsets:
#	150
#	22822
#	45997
#	61767
#	85067
#	113792
#	131635
#	161125
#	184067
#	202430
#
# Disc length: 2965 seconds
#
# Revision: 2
# Processed by: cddbd v1.5PL3 Copyright (c) Steve Scherf et al.
# Submitted via: MusicWizard 7.0.2
#
DISCID=810b930a
DTITLE=Fleetwood Mac - Live
DYEAR=1900
DGENRE=Rock
TTITLE0=Got To Move
TTITLE1=I Held My Baby Last Night
TTITLE2=My Baby's Sweet
TTITLE3=My Baby's A Good Un
TTITLE4=Don't Know Which Way To Go
TTITLE5=Buzz Me
TTITLE6=The Worried Dream
TTITLE7=The World Keeps On Turning
TTITLE8=How Blue Can You Get
TTITLE9=Bleeding Heart
EXTD=
EXTT0=
EXTT1=
EXTT2=
EXTT3=
EXTT4=
EXTT5=
EXTT6=
EXTT7=
EXTT8=
EXTT9=
PLAYORDER=
